<mxfile host="app.diagrams.net" modified="2023-07-12T07:16:42.903Z" agent="Mozilla/5.0 (Windows NT 10.0; Win64; x64) AppleWebKit/537.36 (KHTML, like Gecko) Chrome/114.0.0.0 Safari/537.36 Edg/114.0.1823.67" etag="DnyuJ4Xu7q6Lfl0Etwcu" version="21.6.1" type="github">
  <diagram name="第 1 页" id="RDqCYDXG6RgaDb9wK5Ka">
    <mxGraphModel dx="1154" dy="796" grid="1" gridSize="10" guides="1" tooltips="1" connect="1" arrows="1" fold="1" page="1" pageScale="1" pageWidth="1169" pageHeight="827" math="0" shadow="0">
      <root>
        <mxCell id="0" />
        <mxCell id="1" parent="0" />
        <mxCell id="CYltiOfpcbfsWVifrRyg-1" value="更新线程" style="rounded=0;whiteSpace=wrap;html=1;" vertex="1" parent="1">
          <mxGeometry x="195" y="100" width="130" height="30" as="geometry" />
        </mxCell>
        <mxCell id="CYltiOfpcbfsWVifrRyg-5" style="edgeStyle=orthogonalEdgeStyle;rounded=0;orthogonalLoop=1;jettySize=auto;html=1;entryX=0.5;entryY=0;entryDx=0;entryDy=0;" edge="1" parent="1" source="CYltiOfpcbfsWVifrRyg-3" target="CYltiOfpcbfsWVifrRyg-15">
          <mxGeometry relative="1" as="geometry">
            <mxPoint x="260" y="310" as="targetPoint" />
          </mxGeometry>
        </mxCell>
        <mxCell id="CYltiOfpcbfsWVifrRyg-32" value="获取成功" style="edgeLabel;html=1;align=center;verticalAlign=middle;resizable=0;points=[];" vertex="1" connectable="0" parent="CYltiOfpcbfsWVifrRyg-5">
          <mxGeometry x="-0.68" y="2" relative="1" as="geometry">
            <mxPoint as="offset" />
          </mxGeometry>
        </mxCell>
        <mxCell id="CYltiOfpcbfsWVifrRyg-33" style="edgeStyle=orthogonalEdgeStyle;rounded=0;orthogonalLoop=1;jettySize=auto;html=1;entryX=1;entryY=0.5;entryDx=0;entryDy=0;" edge="1" parent="1" source="CYltiOfpcbfsWVifrRyg-3" target="CYltiOfpcbfsWVifrRyg-35">
          <mxGeometry relative="1" as="geometry">
            <mxPoint x="120" y="210" as="targetPoint" />
          </mxGeometry>
        </mxCell>
        <mxCell id="CYltiOfpcbfsWVifrRyg-34" value="获取失败" style="edgeLabel;html=1;align=center;verticalAlign=middle;resizable=0;points=[];" vertex="1" connectable="0" parent="CYltiOfpcbfsWVifrRyg-33">
          <mxGeometry x="-0.2318" y="3" relative="1" as="geometry">
            <mxPoint as="offset" />
          </mxGeometry>
        </mxCell>
        <mxCell id="CYltiOfpcbfsWVifrRyg-3" value="使用lock.tryLock方法尝试获取锁" style="rhombus;whiteSpace=wrap;html=1;" vertex="1" parent="1">
          <mxGeometry x="195" y="170" width="130" height="80" as="geometry" />
        </mxCell>
        <mxCell id="CYltiOfpcbfsWVifrRyg-17" style="edgeStyle=orthogonalEdgeStyle;rounded=0;orthogonalLoop=1;jettySize=auto;html=1;entryX=0.5;entryY=0;entryDx=0;entryDy=0;" edge="1" parent="1" source="CYltiOfpcbfsWVifrRyg-15" target="CYltiOfpcbfsWVifrRyg-18">
          <mxGeometry relative="1" as="geometry">
            <mxPoint x="255" y="410" as="targetPoint" />
          </mxGeometry>
        </mxCell>
        <mxCell id="CYltiOfpcbfsWVifrRyg-15" value="进行批量插入更新" style="rounded=1;whiteSpace=wrap;html=1;" vertex="1" parent="1">
          <mxGeometry x="200" y="280" width="120" height="50" as="geometry" />
        </mxCell>
        <mxCell id="CYltiOfpcbfsWVifrRyg-18" value="释放锁lock.unLock()" style="rounded=1;whiteSpace=wrap;html=1;" vertex="1" parent="1">
          <mxGeometry x="200" y="363.5" width="120" height="50" as="geometry" />
        </mxCell>
        <mxCell id="CYltiOfpcbfsWVifrRyg-24" style="edgeStyle=orthogonalEdgeStyle;rounded=0;orthogonalLoop=1;jettySize=auto;html=1;entryX=0.5;entryY=0;entryDx=0;entryDy=0;" edge="1" parent="1" source="CYltiOfpcbfsWVifrRyg-25" target="CYltiOfpcbfsWVifrRyg-27">
          <mxGeometry relative="1" as="geometry" />
        </mxCell>
        <mxCell id="CYltiOfpcbfsWVifrRyg-25" value="查询项目组成设置所属类别" style="rounded=1;whiteSpace=wrap;html=1;" vertex="1" parent="1">
          <mxGeometry x="450" y="230" width="120" height="60" as="geometry" />
        </mxCell>
        <mxCell id="CYltiOfpcbfsWVifrRyg-26" style="edgeStyle=orthogonalEdgeStyle;rounded=0;orthogonalLoop=1;jettySize=auto;html=1;entryX=0.5;entryY=0;entryDx=0;entryDy=0;" edge="1" parent="1" source="CYltiOfpcbfsWVifrRyg-27" target="CYltiOfpcbfsWVifrRyg-29">
          <mxGeometry relative="1" as="geometry" />
        </mxCell>
        <mxCell id="CYltiOfpcbfsWVifrRyg-27" value="查询造价树形及所属分类父节点" style="rounded=1;whiteSpace=wrap;html=1;" vertex="1" parent="1">
          <mxGeometry x="450" y="310" width="120" height="60" as="geometry" />
        </mxCell>
        <mxCell id="CYltiOfpcbfsWVifrRyg-28" style="edgeStyle=orthogonalEdgeStyle;rounded=0;orthogonalLoop=1;jettySize=auto;html=1;entryX=0.5;entryY=0;entryDx=0;entryDy=0;" edge="1" parent="1" source="CYltiOfpcbfsWVifrRyg-29" target="CYltiOfpcbfsWVifrRyg-31">
          <mxGeometry relative="1" as="geometry" />
        </mxCell>
        <mxCell id="CYltiOfpcbfsWVifrRyg-29" value="dto转换、排序关联项目组成" style="rounded=1;whiteSpace=wrap;html=1;" vertex="1" parent="1">
          <mxGeometry x="450" y="390" width="120" height="60" as="geometry" />
        </mxCell>
        <mxCell id="CYltiOfpcbfsWVifrRyg-30" style="edgeStyle=orthogonalEdgeStyle;rounded=0;orthogonalLoop=1;jettySize=auto;html=1;entryX=0.5;entryY=0;entryDx=0;entryDy=0;" edge="1" parent="1" source="CYltiOfpcbfsWVifrRyg-31">
          <mxGeometry relative="1" as="geometry">
            <mxPoint x="510" y="540" as="targetPoint" />
          </mxGeometry>
        </mxCell>
        <mxCell id="CYltiOfpcbfsWVifrRyg-31" value="查询历史数据" style="rounded=1;whiteSpace=wrap;html=1;" vertex="1" parent="1">
          <mxGeometry x="450" y="470" width="120" height="50" as="geometry" />
        </mxCell>
        <mxCell id="CYltiOfpcbfsWVifrRyg-35" value="直接返回" style="rounded=1;whiteSpace=wrap;html=1;" vertex="1" parent="1">
          <mxGeometry x="40" y="185" width="90" height="55" as="geometry" />
        </mxCell>
      </root>
    </mxGraphModel>
  </diagram>
</mxfile>
